<svg width="24" height="25" viewBox="0 0 24 25" fill="none" xmlns="http://www.w3.org/2000/svg">
<path d="M15.7501 21.5C15.7501 21.6989 15.671 21.8897 15.5304 22.0303C15.3897 22.171 15.199 22.25 15.0001 22.25H9.00005C8.80114 22.25 8.61037 22.171 8.46972 22.0303C8.32907 21.8897 8.25005 21.6989 8.25005 21.5C8.25005 21.3011 8.32907 21.1103 8.46972 20.9697C8.61037 20.829 8.80114 20.75 9.00005 20.75H15.0001C15.199 20.75 15.3897 20.829 15.5304 20.9697C15.671 21.1103 15.7501 21.3011 15.7501 21.5ZM20.7985 18.5C20.6684 18.7292 20.4794 18.9196 20.2512 19.0514C20.0229 19.1833 19.7636 19.2518 19.5001 19.25H4.50005C4.23637 19.2496 3.97744 19.1798 3.74935 19.0475C3.52127 18.9151 3.3321 18.725 3.20091 18.4963C3.06972 18.2676 3.00114 18.0083 3.00208 17.7446C3.00303 17.4809 3.07347 17.2222 3.2063 16.9944C3.72661 16.0981 4.50005 13.5631 4.50005 10.25C4.50005 8.26088 5.29023 6.35322 6.69675 4.9467C8.10327 3.54018 10.0109 2.75 12.0001 2.75C13.9892 2.75 15.8968 3.54018 17.3034 4.9467C18.7099 6.35322 19.5001 8.26088 19.5001 10.25C19.5001 13.5622 20.2744 16.0981 20.7947 16.9944C20.9289 17.2225 20.9999 17.4822 21.0004 17.7468C21.0009 18.0114 20.9309 18.2714 20.7976 18.5H20.7985ZM19.5001 17.75C18.7754 16.5059 18.0001 13.6297 18.0001 10.25C18.0001 8.6587 17.3679 7.13258 16.2427 6.00736C15.1175 4.88214 13.5914 4.25 12.0001 4.25C10.4088 4.25 8.88263 4.88214 7.75741 6.00736C6.63219 7.13258 6.00005 8.6587 6.00005 10.25C6.00005 13.6306 5.2238 16.5069 4.50005 17.75H19.5001Z" fill="#7A7A7A"/>
</svg>
