<svg width="24" height="25" viewBox="0 0 24 25" fill="none" xmlns="http://www.w3.org/2000/svg">
<path d="M12.0001 2.75C10.0717 2.75 8.18664 3.32183 6.58326 4.39317C4.97988 5.46451 3.73019 6.98726 2.99224 8.76884C2.25429 10.5504 2.0612 12.5108 2.43741 14.4021C2.81361 16.2934 3.74221 18.0307 5.10577 19.3943C6.46934 20.7579 8.20662 21.6865 10.0979 22.0627C11.9893 22.4389 13.9496 22.2458 15.7312 21.5078C17.5128 20.7699 19.0356 19.5202 20.1069 17.9168C21.1782 16.3134 21.7501 14.4284 21.7501 12.5C21.7473 9.91498 20.7192 7.43661 18.8913 5.60872C17.0635 3.78084 14.5851 2.75273 12.0001 2.75ZM6.94507 19.0156C7.48763 18.1671 8.23507 17.4688 9.11849 16.9851C10.0019 16.5013 10.9929 16.2478 12.0001 16.2478C13.0072 16.2478 13.9982 16.5013 14.8816 16.9851C15.7651 17.4688 16.5125 18.1671 17.0551 19.0156C15.6098 20.1397 13.831 20.7499 12.0001 20.7499C10.1691 20.7499 8.39038 20.1397 6.94507 19.0156ZM9.00007 11.75C9.00007 11.1567 9.17601 10.5766 9.50566 10.0833C9.8353 9.58994 10.3038 9.20542 10.852 8.97836C11.4002 8.7513 12.0034 8.69189 12.5853 8.80764C13.1673 8.9234 13.7018 9.20912 14.1214 9.62868C14.5409 10.0482 14.8267 10.5828 14.9424 11.1647C15.0582 11.7467 14.9988 12.3499 14.7717 12.8981C14.5446 13.4462 14.1601 13.9148 13.6668 14.2444C13.1734 14.5741 12.5934 14.75 12.0001 14.75C11.2044 14.75 10.4414 14.4339 9.87875 13.8713C9.31614 13.3087 9.00007 12.5456 9.00007 11.75ZM18.1651 17.9759C17.3286 16.7638 16.1524 15.8261 14.7844 15.2806C15.5193 14.7019 16.0555 13.9085 16.3185 13.0108C16.5815 12.1132 16.5583 11.1559 16.252 10.2721C15.9457 9.38825 15.3717 8.62183 14.6096 8.0794C13.8476 7.53696 12.9355 7.24548 12.0001 7.24548C11.0647 7.24548 10.1525 7.53696 9.3905 8.0794C8.62845 8.62183 8.05438 9.38825 7.74812 10.2721C7.44185 11.1559 7.41861 12.1132 7.68163 13.0108C7.94465 13.9085 8.48086 14.7019 9.21569 15.2806C7.84771 15.8261 6.67153 16.7638 5.83507 17.9759C4.7781 16.7873 4.08726 15.3185 3.84573 13.7464C3.60421 12.1743 3.8223 10.5658 4.47374 9.11478C5.12518 7.66372 6.1822 6.43192 7.51751 5.56769C8.85282 4.70346 10.4095 4.24367 12.0001 4.24367C13.5906 4.24367 15.1473 4.70346 16.4826 5.56769C17.8179 6.43192 18.875 7.66372 19.5264 9.11478C20.1778 10.5658 20.3959 12.1743 20.1544 13.7464C19.9129 15.3185 19.222 16.7873 18.1651 17.9759Z" fill="#7A7A7A"/>
</svg>
